<svg width="13" height="14" viewBox="0 0 13 14" fill="none" xmlns="http://www.w3.org/2000/svg">
<path d="M6.50065 6.99967C6.89023 6.99967 7.22374 6.86912 7.50117 6.60801C7.7786 6.3469 7.91732 6.03301 7.91732 5.66634C7.91732 5.29967 7.7786 4.98579 7.50117 4.72467C7.22374 4.46356 6.89023 4.33301 6.50065 4.33301C6.11107 4.33301 5.77756 4.46356 5.50013 4.72467C5.2227 4.98579 5.08398 5.29967 5.08398 5.66634C5.08398 6.03301 5.2227 6.3469 5.50013 6.60801C5.77756 6.86912 6.11107 6.99967 6.50065 6.99967ZM6.50065 13.6663C4.59996 12.1441 3.18034 10.7302 2.2418 9.42467C1.30326 8.11912 0.833984 6.91079 0.833984 5.79967C0.833984 4.13301 1.4036 2.80523 2.54284 1.81634C3.68207 0.827452 5.00135 0.333008 6.50065 0.333008C7.99996 0.333008 9.31923 0.827452 10.4585 1.81634C11.5977 2.80523 12.1673 4.13301 12.1673 5.79967C12.1673 6.91079 11.698 8.11912 10.7595 9.42467C9.82096 10.7302 8.40134 12.1441 6.50065 13.6663Z" fill="#2D2C30"/>
</svg>
